<svg width="22" height="22" viewBox="0 0 22 22" fill="none" xmlns="http://www.w3.org/2000/svg">
<path d="M20.5018 5.57091H12.3564V9.67273H21.8691V6.93818C21.8691 6.18909 21.2582 5.57091 20.5018 5.57091ZM1.36727 5.57091C0.610909 5.57091 0 6.18182 0 6.93818V9.67273H9.57091V5.57091H1.36727ZM1.36727 11.04V20.6109C1.36727 21.3673 1.97818 21.9782 2.73455 21.9782H9.57091V11.04H1.36727ZM19.1345 21.9782C19.8909 21.9782 20.5018 21.3673 20.5018 20.6109V11.04H12.3564V21.9782H19.1345ZM10.9382 4.19636C10.9455 4.19636 10.9455 4.20364 10.9455 4.21091H16.4145C18.3055 4.21091 19.1491 3.26546 19.1491 2.10909C19.1491 0.952728 18.2982 0.00727276 16.4145 0.00727276C14.6473 0.00727276 13.2582 0.821818 12.3127 1.76727C11.4691 1.23636 10.4 1.22909 9.54909 1.73818C8.60364 0.8 7.22182 0 5.46909 0C3.57818 0 2.73455 0.945455 2.73455 2.10182C2.73455 3.25818 3.57818 4.20364 5.46909 4.20364H10.9382V4.19636ZM17.7673 2.16C17.7673 2.72727 17.0255 2.84364 16.4 2.84364H13.2945C13.2873 2.82182 13.2727 2.80727 13.2655 2.78545C13.9636 2.10909 15.0109 1.47636 16.4 1.47636C17.0255 1.47636 17.7673 1.59273 17.7673 2.16ZM4.10182 2.16C4.10182 1.59273 4.84364 1.47636 5.46909 1.47636C6.82909 1.47636 7.86182 2.08727 8.55273 2.73455C8.53091 2.77091 8.51636 2.80727 8.49455 2.84364H5.46909C4.84364 2.84364 4.10182 2.72 4.10182 2.16Z" fill="#D32131"/>
</svg>
