<svg width="100" height="100" viewBox="0 0 100 100" fill="none" xmlns="http://www.w3.org/2000/svg">
<g clip-path="url(#clip0_1448_1129)">
<g filter="url(#filter0_d_1448_1129)">
<path d="M96.9441 54.5977C97.76 55.1508 98.3945 55.9323 98.769 56.8446C99.1434 57.7568 99.2407 58.7592 99.049 59.7265C98.8572 60.6938 98.3848 61.583 97.6903 62.2831C96.9966 62.9832 96.1117 63.463 95.1462 63.6626C95.8372 64.3651 96.3062 65.2558 96.4945 66.2234C96.6828 67.191 96.5814 68.1926 96.2041 69.1028C95.8269 70.0138 95.1897 70.7924 94.3724 71.3428C93.5552 71.8931 92.5938 72.1903 91.6083 72.1972C92.1476 73.0214 92.4324 73.9855 92.4276 74.9703C92.4228 75.9552 92.1276 76.9172 91.58 77.7352C91.0324 78.5538 90.2565 79.1931 89.3483 79.5731C88.44 79.9531 87.4407 80.0566 86.4738 79.8717C86.8435 80.7848 86.9366 81.7869 86.7414 82.7524C86.5455 83.7179 86.0703 84.6048 85.3745 85.3014C84.6786 85.9986 83.7931 86.4752 82.8283 86.6717C81.8634 86.8683 80.8621 86.7766 79.9497 86.4076C80.1345 87.3745 80.0303 88.3752 79.6503 89.2834C79.271 90.1924 78.6324 90.969 77.8145 91.5172C76.9966 92.0648 76.0352 92.36 75.051 92.3648C74.0669 92.3697 73.1028 92.0848 72.2793 91.5455C72.2724 92.531 71.9752 93.4931 71.4255 94.3103C70.8759 95.1283 70.0972 95.7662 69.1869 96.1435C68.2771 96.5214 67.2761 96.6221 66.3092 96.4338C65.3421 96.2462 64.452 95.7765 63.7499 95.0855C63.5653 96.0648 63.0934 96.9662 62.3945 97.6766C61.6955 98.3862 60.8012 98.8717 59.8254 99.0703C58.8497 99.2697 57.8367 99.1738 56.9158 98.7945C55.9948 98.4152 55.2077 97.7697 54.6546 96.9414C54.2704 97.8483 53.6279 98.6221 52.807 99.1662C51.9862 99.7097 51.0235 100 50.039 100C49.0545 100 48.0917 99.7097 47.2709 99.1662C46.4501 98.6221 45.8075 97.8483 45.4233 96.9414C44.8702 97.7552 44.0901 98.3883 43.1799 98.7621C42.2698 99.1359 41.2699 99.2331 40.3049 99.0421C39.3399 98.851 38.4523 98.38 37.7528 97.6883C37.0533 96.9959 36.5728 96.1131 36.371 95.1497C35.6692 95.8434 34.7786 96.3152 33.8103 96.5048C32.8421 96.6938 31.8395 96.5938 30.9281 96.2159C30.0168 95.8379 29.237 95.1993 28.6868 94.38C28.1364 93.5607 27.8399 92.5972 27.8343 91.6097C27.0108 92.1517 26.046 92.4386 25.0605 92.4345C24.0749 92.431 23.1123 92.1365 22.2931 91.5883C21.4739 91.04 20.8343 90.2621 20.4545 89.3524C20.0746 88.4421 19.9711 87.44 20.1571 86.4717C19.2428 86.8462 18.2383 86.9421 17.2698 86.7469C16.3012 86.5524 15.4119 86.0752 14.7132 85.3766C14.0147 84.6772 13.5381 83.7876 13.3433 82.8186C13.1486 81.849 13.2443 80.8441 13.6186 79.9297C12.6501 80.1172 11.6479 80.0152 10.7372 79.6359C9.82655 79.2566 9.048 78.6166 8.49903 77.7966C7.95007 76.9766 7.65517 76.0124 7.65117 75.0255C7.64717 74.0379 7.93428 73.0717 8.47655 72.2476C7.49145 72.2407 6.53021 71.9434 5.7129 71.3931C4.8956 70.8428 4.25844 70.0635 3.88101 69.1531C3.50359 68.2427 3.40263 67.2411 3.59073 66.2735C3.77883 65.3059 4.24768 64.4152 4.9387 63.7128C3.96063 63.527 3.05998 63.0541 2.35152 62.3542C1.64307 61.6544 1.15888 60.7594 0.960683 59.7832C0.76249 58.807 0.859248 57.7939 1.23864 56.8729C1.61803 55.9519 2.26288 55.1648 3.09099 54.6119C2.17589 54.2318 1.39389 53.5889 0.843752 52.7643C0.293617 51.9398 0 50.9706 0 49.9792C0 48.9877 0.293617 48.0186 0.843752 47.194C1.39389 46.3694 2.17589 45.7265 3.09099 45.3463C2.27511 44.7932 1.64028 44.0116 1.26587 43.0994C0.891469 42.1872 0.79409 41.1848 0.985903 40.2175C1.17772 39.2502 1.65023 38.361 2.34435 37.6609C3.03848 36.9608 3.92341 36.481 4.88856 36.2814C4.19754 35.5789 3.7287 34.6882 3.54059 33.7206C3.35249 32.753 3.45346 31.7514 3.83088 30.841C4.2083 29.9305 4.84546 29.1514 5.66277 28.6011C6.48007 28.0508 7.44131 27.7537 8.42641 27.7468C7.88724 26.9228 7.60241 25.9582 7.60745 24.9734C7.61248 23.9885 7.90717 23.0269 8.45476 22.2085C9.00235 21.3901 9.77855 20.7511 10.6866 20.3712C11.5947 19.9912 12.5945 19.8872 13.5612 20.072C13.1914 19.159 13.0983 18.1572 13.2937 17.1916C13.4892 16.226 13.9646 15.3394 14.6604 14.6423C15.3562 13.9453 16.2418 13.4688 17.2066 13.2721C18.1713 13.0755 19.1726 13.1675 20.0855 13.5366C19.8982 12.5671 20.001 11.5638 20.3812 10.6526C20.7612 9.74124 21.4017 8.96248 22.2223 8.41379C23.0428 7.86517 24.0069 7.5711 24.9938 7.56841C25.9807 7.56566 26.9464 7.85448 27.7699 8.39862C27.7768 7.41297 28.0738 6.45114 28.6237 5.63334C29.1737 4.81554 29.9523 4.17799 30.8623 3.80034C31.7722 3.42268 32.7732 3.32166 33.7401 3.50988C34.7072 3.6981 35.5973 4.16721 36.2994 4.85865C36.496 3.8879 36.9754 2.99711 37.6772 2.29859C38.379 1.60006 39.2717 1.12506 40.2429 0.933462C41.2141 0.741862 42.2203 0.842248 43.1345 1.22197C44.0488 1.60168 44.8302 2.24372 45.3803 3.06715C45.7634 2.158 46.4061 1.3821 47.2277 0.836545C48.0493 0.290989 49.0135 0 49.9996 0C50.9857 0 51.9499 0.290989 52.7714 0.836545C53.5931 1.3821 54.2357 2.158 54.6188 3.06715C55.1717 2.25079 55.9528 1.61558 56.8644 1.24094C57.7761 0.86631 58.7779 0.768876 59.7446 0.960807C60.7112 1.15273 61.6 1.62551 62.2997 2.32005C62.9993 3.01459 63.4788 3.90007 63.6783 4.86581C64.3799 4.17479 65.2695 3.70579 66.2357 3.51733C67.2021 3.32888 68.2025 3.4293 69.1124 3.80607C70.0221 4.18284 70.8007 4.81929 71.351 5.63601C71.9014 6.45272 72.1993 7.41359 72.2076 8.39862C73.031 7.85917 73.9952 7.57421 74.9793 7.57924C75.9635 7.58428 76.9248 7.8791 77.7428 8.42703C78.5607 8.9749 79.1993 9.75159 79.5786 10.6602C79.9586 11.5689 80.0628 12.5692 79.8779 13.5366C80.791 13.1675 81.7917 13.0755 82.7566 13.2721C83.7214 13.4688 84.6069 13.9453 85.3028 14.6423C85.9986 15.3394 86.4738 16.226 86.6697 17.1916C86.8648 18.1572 86.7717 19.159 86.4021 20.072C87.3697 19.8859 88.371 19.9894 89.2807 20.3695C90.1903 20.7497 90.9676 21.3895 91.5152 22.2092C92.0635 23.029 92.3572 23.9921 92.3614 24.9783C92.3648 25.9645 92.0786 26.9299 91.5372 27.7539C92.5221 27.7608 93.4834 28.058 94.3007 28.6083C95.1179 29.1586 95.7552 29.9377 96.1324 30.8481C96.5097 31.7586 96.611 32.7602 96.4228 33.7278C96.2345 34.6954 95.7655 35.5861 95.0745 36.2886C96.0407 36.4843 96.9276 36.9607 97.6248 37.658C98.3214 38.3553 98.7972 39.2427 98.9931 40.2092C99.189 41.1757 99.0952 42.1785 98.7241 43.0922C98.3538 44.0059 97.7221 44.7899 96.9083 45.3463C97.8207 45.7251 98.6007 46.3651 99.1504 47.1859C99.7007 48.0067 99.9959 48.9718 100 49.9601C100.003 50.9483 99.7159 51.9157 99.1724 52.7408C98.6283 53.5658 97.8531 54.2118 96.9441 54.5977Z" fill="#FDD696"/>
</g>
<g filter="url(#filter1_d_1448_1129)">
<path d="M50 41.7463V51.7463M50 24.9844C44.2653 30.4154 36.5217 33.7464 28 33.7464C27.8646 33.7464 27.7294 33.7455 27.5944 33.7439C26.5597 36.8908 26 40.2533 26 43.7465C26 58.6572 36.1982 71.186 50 74.7384C63.8018 71.186 74 58.6572 74 43.7465C74 40.2533 73.4403 36.8908 72.4056 33.7439C72.2706 33.7455 72.1354 33.7464 72 33.7464C63.4783 33.7464 55.7347 30.4154 50 24.9844ZM50 59.7463H50.02V59.7663H50V59.7463Z" stroke="#00674F" stroke-width="4" stroke-linecap="round" stroke-linejoin="round"/>
</g>
</g>
<defs>
<filter id="filter0_d_1448_1129" x="-4" y="0" width="108" height="108" filterUnits="userSpaceOnUse" color-interpolation-filters="sRGB">
<feFlood flood-opacity="0" result="BackgroundImageFix"/>
<feColorMatrix in="SourceAlpha" type="matrix" values="0 0 0 0 0 0 0 0 0 0 0 0 0 0 0 0 0 0 127 0" result="hardAlpha"/>
<feOffset dy="4"/>
<feGaussianBlur stdDeviation="2"/>
<feComposite in2="hardAlpha" operator="out"/>
<feColorMatrix type="matrix" values="0 0 0 0 0 0 0 0 0 0 0 0 0 0 0 0 0 0 0.25 0"/>
<feBlend mode="normal" in2="BackgroundImageFix" result="effect1_dropShadow_1448_1129"/>
<feBlend mode="normal" in="SourceGraphic" in2="effect1_dropShadow_1448_1129" result="shape"/>
</filter>
<filter id="filter1_d_1448_1129" x="14" y="17.7461" width="72" height="72" filterUnits="userSpaceOnUse" color-interpolation-filters="sRGB">
<feFlood flood-opacity="0" result="BackgroundImageFix"/>
<feColorMatrix in="SourceAlpha" type="matrix" values="0 0 0 0 0 0 0 0 0 0 0 0 0 0 0 0 0 0 127 0" result="hardAlpha"/>
<feOffset dy="4"/>
<feGaussianBlur stdDeviation="2"/>
<feComposite in2="hardAlpha" operator="out"/>
<feColorMatrix type="matrix" values="0 0 0 0 0 0 0 0 0 0 0 0 0 0 0 0 0 0 0.25 0"/>
<feBlend mode="normal" in2="BackgroundImageFix" result="effect1_dropShadow_1448_1129"/>
<feBlend mode="normal" in="SourceGraphic" in2="effect1_dropShadow_1448_1129" result="shape"/>
</filter>
<clipPath id="clip0_1448_1129">
<rect width="100" height="100" fill="white"/>
</clipPath>
</defs>
</svg>
