<svg width="22" height="22" viewBox="0 0 22 22" fill="none" xmlns="http://www.w3.org/2000/svg">
<path fill-rule="evenodd" clip-rule="evenodd" d="M4.698 1.12109e-06H4.802C5.70048 -2.8264e-05 6.4497 -5.2765e-05 7.04448 0.0799135C7.67228 0.164318 8.23908 0.349989 8.69455 0.805459C9.15002 1.26093 9.33569 1.82773 9.42009 2.45552C9.50006 3.05031 9.50003 3.79953 9.5 4.69801V16.802C9.50003 17.7005 9.50006 18.4497 9.42009 19.0445C9.33569 19.6723 9.15002 20.2391 8.69455 20.6945C8.23908 21.15 7.67228 21.3357 7.04448 21.4201C6.4497 21.5001 5.70048 21.5 4.802 21.5H4.69801C3.79953 21.5 3.05031 21.5001 2.45552 21.4201C1.82773 21.3357 1.26093 21.15 0.805459 20.6945C0.349989 20.2391 0.164318 19.6723 0.0799135 19.0445C-5.2765e-05 18.4497 -2.8264e-05 17.7005 1.12109e-06 16.802V4.698C-2.8264e-05 3.79952 -5.2765e-05 3.0503 0.0799135 2.45552C0.164318 1.82773 0.349989 1.26093 0.805459 0.805459C1.26093 0.349989 1.82773 0.164318 2.45552 0.0799135C3.0503 -5.2765e-05 3.79952 -2.8264e-05 4.698 1.12109e-06ZM2.65539 1.56654C2.19393 1.62858 1.99644 1.7358 1.86612 1.86612C1.7358 1.99644 1.62858 2.19393 1.56654 2.65539C1.5016 3.13843 1.5 3.78599 1.5 4.75V16.75C1.5 17.714 1.5016 18.3616 1.56654 18.8446C1.62858 19.3061 1.7358 19.5036 1.86612 19.6339C1.99644 19.7642 2.19393 19.8714 2.65539 19.9335C3.13843 19.9984 3.78599 20 4.75 20C5.71401 20 6.36157 19.9984 6.84461 19.9335C7.30607 19.8714 7.50357 19.7642 7.63389 19.6339C7.7642 19.5036 7.87143 19.3061 7.93347 18.8446C7.99841 18.3616 8 17.714 8 16.75V4.75C8 3.78599 7.99841 3.13843 7.93347 2.65539C7.87143 2.19393 7.7642 1.99644 7.63389 1.86612C7.50357 1.7358 7.30607 1.62858 6.84461 1.56654C6.36157 1.5016 5.71401 1.5 4.75 1.5C3.78599 1.5 3.13843 1.5016 2.65539 1.56654ZM16.698 1.12109e-06H16.802C17.7005 -2.8264e-05 18.4497 -5.2765e-05 19.0445 0.0799135C19.6723 0.164318 20.2391 0.349989 20.6945 0.805459C21.15 1.26093 21.3357 1.82773 21.4201 2.45552C21.5001 3.05031 21.5 3.79953 21.5 4.69801V16.802C21.5 17.7005 21.5001 18.4497 21.4201 19.0445C21.3357 19.6723 21.15 20.2391 20.6945 20.6945C20.2391 21.15 19.6723 21.3357 19.0445 21.4201C18.4497 21.5001 17.7005 21.5 16.802 21.5H16.698C15.7995 21.5 15.0503 21.5001 14.4555 21.4201C13.8277 21.3357 13.2609 21.15 12.8055 20.6945C12.35 20.2391 12.1643 19.6723 12.0799 19.0445C11.9999 18.4497 12 17.7005 12 16.802V4.69801C12 3.79953 11.9999 3.0503 12.0799 2.45552C12.1643 1.82773 12.35 1.26093 12.8055 0.805459C13.2609 0.349989 13.8277 0.164318 14.4555 0.0799135C15.0503 -5.2765e-05 15.7995 -2.8264e-05 16.698 1.12109e-06ZM14.6554 1.56654C14.1939 1.62858 13.9964 1.7358 13.8661 1.86612C13.7358 1.99644 13.6286 2.19393 13.5665 2.65539C13.5016 3.13843 13.5 3.78599 13.5 4.75V16.75C13.5 17.714 13.5016 18.3616 13.5665 18.8446C13.6286 19.3061 13.7358 19.5036 13.8661 19.6339C13.9964 19.7642 14.1939 19.8714 14.6554 19.9335C15.1384 19.9984 15.786 20 16.75 20C17.714 20 18.3616 19.9984 18.8446 19.9335C19.3061 19.8714 19.5036 19.7642 19.6339 19.6339C19.7642 19.5036 19.8714 19.3061 19.9335 18.8446C19.9984 18.3616 20 17.714 20 16.75V4.75C20 3.78599 19.9984 3.13843 19.9335 2.65539C19.8714 2.19393 19.7642 1.99644 19.6339 1.86612C19.5036 1.7358 19.3061 1.62858 18.8446 1.56654C18.3616 1.5016 17.714 1.5 16.75 1.5C15.786 1.5 15.1384 1.5016 14.6554 1.56654Z" fill="white"/>
</svg>
