<svg width="28" height="20" viewBox="0 0 28 20" fill="none" xmlns="http://www.w3.org/2000/svg">
<g clip-path="url(#clip0_1448_1012)">
<path d="M9.7322 1.654C11.205 3.18921 11.9957 4.91106 11.9957 7.70222C11.9957 12.6138 8.48392 17.0159 3.37358 19.1925L2.0967 17.2587C6.86532 14.7272 7.79758 11.442 8.17079 9.37076C7.40294 9.76087 6.39775 9.897 5.41113 9.80718C2.83165 9.57283 0.799805 7.49454 0.799805 4.91106C0.799805 3.60843 1.32707 2.35916 2.2656 1.43807C3.20414 0.516978 4.47706 -0.000488281 5.80435 -0.000488281C7.3386 -0.000488281 8.80564 0.68713 9.7322 1.654Z" fill="#FCEEEF"/>
<path d="M24.1267 1.654C25.5995 3.18921 26.3902 4.91106 26.3902 7.70222C26.3902 12.6138 22.8784 17.0159 17.7681 19.1925L16.4913 17.2587C21.2598 14.7272 22.1921 11.442 22.5654 9.37076C21.7975 9.76087 20.7923 9.897 19.8056 9.80718C17.2262 9.57283 15.1943 7.49454 15.1943 4.91106C15.1943 3.60843 15.7216 2.35916 16.6602 1.43807C17.5987 0.516978 18.8715 -0.000488281 20.1989 -0.000488281C21.7332 -0.000488281 23.2002 0.68713 24.1267 1.654Z" fill="#FCEEEF"/>
</g>
<defs>
<clipPath id="clip0_1448_1012">
<rect width="27.19" height="19.1929" fill="white"/>
</clipPath>
</defs>
</svg>
