<svg width="24" height="24" viewBox="0 0 24 24" fill="none" xmlns="http://www.w3.org/2000/svg">
<rect width="24" height="24" rx="12" fill="#FF0000"/>
<path d="M9.02426 8.60542C8.78995 8.37111 8.41005 8.37111 8.17574 8.60542C7.94142 8.83974 7.94142 9.21964 8.17574 9.45395L11.1515 12.4297L8.17574 15.4054C7.94142 15.6397 7.94142 16.0196 8.17574 16.254C8.41005 16.4883 8.78995 16.4883 9.02426 16.254L12 13.2782L14.9757 16.254C15.2101 16.4883 15.5899 16.4883 15.8243 16.254C16.0586 16.0196 16.0586 15.6397 15.8243 15.4054L12.8485 12.4297L15.8243 9.45395C16.0586 9.21964 16.0586 8.83974 15.8243 8.60542C15.5899 8.37111 15.2101 8.37111 14.9757 8.60542L12 11.5812L9.02426 8.60542Z" fill="#FFF1F1"/>
</svg>
