<svg width="23" height="18" viewBox="0 0 23 18" fill="none" xmlns="http://www.w3.org/2000/svg">
<path fill-rule="evenodd" clip-rule="evenodd" d="M12.1402 1.90954C11.426 2.2565 10.5209 2.85139 9.2311 3.70181L9.01216 3.84616C8.9955 3.85715 8.97905 3.868 8.96283 3.8787C8.58263 4.12949 8.31931 4.30319 8.03077 4.43053C7.74641 4.55603 7.44756 4.64568 7.14108 4.69744C6.83009 4.74995 6.51464 4.74989 6.05918 4.7498C6.03974 4.74979 6.02004 4.74979 6.00008 4.74979C4.55641 4.74979 4.06911 4.76607 3.6548 4.95775C3.25445 5.14298 2.82804 5.54419 2.6188 5.93254C2.40052 6.33765 2.36045 6.75285 2.2834 8.01701C2.26225 8.36398 2.25 8.69657 2.25 8.99979C2.25 9.30301 2.26225 9.63559 2.2834 9.98256C2.36045 11.2467 2.40052 11.6619 2.6188 12.067C2.82804 12.4554 3.25445 12.8566 3.6548 13.0418C4.06911 13.2335 4.55641 13.2498 6.00008 13.2498C6.02004 13.2498 6.03973 13.2498 6.05917 13.2498C6.51464 13.2497 6.83009 13.2496 7.14108 13.3021C7.44756 13.3539 7.74641 13.4436 8.03077 13.569C8.31931 13.6964 8.58263 13.8701 8.96282 14.1209C8.97905 14.1316 8.99549 14.1424 9.01216 14.1534L9.2311 14.2978C10.5209 15.1482 11.426 15.7431 12.1402 16.09C12.8525 16.4361 13.2087 16.4499 13.4578 16.3649C13.5952 16.318 13.7297 16.2496 13.8485 16.1661C14.0651 16.0139 14.2626 15.7193 14.4015 14.9479C14.541 14.1731 14.5924 13.1011 14.6635 11.5704C14.7156 10.4508 14.75 9.51156 14.75 8.99979C14.75 8.48802 14.7156 7.54878 14.6635 6.42921C14.5924 4.89846 14.541 3.82652 14.4015 3.05164C14.2626 2.28028 14.0651 1.98571 13.8485 1.83346C13.7297 1.74998 13.5952 1.68157 13.4578 1.63468C13.2087 1.54965 12.8525 1.56352 12.1402 1.90954ZM11.4848 0.560307C12.3108 0.159039 13.1241 -0.0641432 13.9423 0.215063C14.2142 0.307844 14.4759 0.441032 14.7109 0.606211C15.417 1.10242 15.7159 1.88643 15.8778 2.78588C16.037 3.67023 16.0914 4.84218 16.1592 6.30208L16.1619 6.35959C16.2137 7.47455 16.25 8.44779 16.25 8.99979C16.25 9.55179 16.2137 10.525 16.1619 11.64L16.1592 11.6975C16.0914 13.1574 16.037 14.3293 15.8778 15.2137C15.7159 16.1131 15.417 16.8972 14.7109 17.3934C14.4759 17.5585 14.2142 17.6917 13.9423 17.7845C13.1241 18.0637 12.3108 17.8405 11.4848 17.4393C10.6712 17.0441 9.68413 16.3932 8.45327 15.5816L8.18647 15.4057C7.73856 15.1104 7.58448 15.0117 7.42513 14.9413C7.25452 14.866 7.0752 14.8123 6.89132 14.7812C6.71956 14.7522 6.5366 14.7498 6.00008 14.7498C5.94569 14.7498 5.89203 14.7498 5.83907 14.7498C4.62215 14.7505 3.77659 14.7509 3.02496 14.4032C2.33016 14.0817 1.66141 13.4525 1.29828 12.7785C0.905663 12.0499 0.859593 11.2878 0.794087 10.2043C0.791489 10.1613 0.788861 10.1178 0.786179 10.0738C0.763733 9.70555 0.75 9.34137 0.75 8.99979C0.75 8.65821 0.763733 8.29402 0.786179 7.92576C0.788861 7.88175 0.791489 7.83827 0.794087 7.7953C0.859593 6.71176 0.905663 5.94972 1.29828 5.22104C1.66141 4.54708 2.33016 3.91785 3.02496 3.5964C3.77659 3.24864 4.62215 3.24909 5.83906 3.24973C5.89203 3.24976 5.94569 3.24979 6.00008 3.24979C6.5366 3.24979 6.71956 3.24738 6.89132 3.21838C7.0752 3.18732 7.25452 3.13353 7.42513 3.05823C7.58448 2.9879 7.73856 2.8892 8.18647 2.59387L8.45328 2.41795C9.68414 1.60637 10.6712 0.955515 11.4848 0.560307ZM19.5199 2.42383C19.8381 2.15866 20.311 2.20165 20.5762 2.51986L20 3C20.5762 2.51986 20.5762 2.51986 20.5762 2.51986L20.5773 2.52124L20.5786 2.52278L20.5816 2.52639L20.5891 2.53566C20.5948 2.54276 20.6018 2.55169 20.6102 2.56248C20.6269 2.58406 20.6486 2.61305 20.6748 2.64962C20.727 2.72275 20.7966 2.82615 20.8775 2.961C21.0394 3.23082 21.2462 3.62598 21.45 4.15577C21.8582 5.21713 22.25 6.80843 22.25 9C22.25 11.1916 21.8582 12.7829 21.45 13.8442C21.2462 14.374 21.0394 14.7692 20.8775 15.039C20.7966 15.1738 20.727 15.2772 20.6748 15.3504C20.6486 15.3869 20.6269 15.4159 20.6102 15.4375C20.6052 15.444 20.6007 15.4498 20.5966 15.4549C20.5939 15.4583 20.5914 15.4615 20.5891 15.4643L20.5816 15.4736L20.5786 15.4772L20.5773 15.4788C20.5773 15.4788 20.5762 15.4801 20 15L20.5762 15.4801C20.311 15.7983 19.8381 15.8413 19.5199 15.5762C19.2032 15.3123 19.1591 14.8426 19.42 14.5245M19.42 14.5245C19.42 14.5245 19.4218 14.5222 19.4235 14.52C19.4288 14.5132 19.4393 14.4994 19.4542 14.4785C19.4839 14.4368 19.5315 14.3668 19.5913 14.2673C19.7106 14.0683 19.8788 13.751 20.05 13.3058C20.3918 12.4171 20.75 11.0084 20.75 9C20.75 6.99157 20.3918 5.58287 20.05 4.69423C19.8788 4.24901 19.7106 3.93168 19.5913 3.73275C19.5315 3.63322 19.4839 3.56318 19.4542 3.52148C19.4393 3.50062 19.4288 3.48684 19.4235 3.48C19.4218 3.47779 19.42 3.47553 19.42 3.47553L19.4235 3.48L19.422 3.47787L19.42 3.47553C19.1591 3.15738 19.2032 2.68773 19.5199 2.42383M17.6358 5.34438C17.9979 5.14322 18.4545 5.27368 18.6556 5.63577L18.0276 5.98466C18.6556 5.63578 18.6556 5.63577 18.6556 5.63577L18.6563 5.63708L18.6571 5.63847L18.6588 5.64152L18.6626 5.64864L18.6723 5.66699C18.6795 5.68106 18.6884 5.69881 18.6986 5.72032C18.7191 5.76335 18.7451 5.82135 18.7745 5.89489C18.8333 6.04206 18.9059 6.251 18.9765 6.52622C19.1178 7.07716 19.25 7.88988 19.25 9C19.25 10.1101 19.1178 10.9228 18.9765 11.4738C18.9059 11.749 18.8333 11.9579 18.7745 12.1051C18.7451 12.1787 18.7191 12.2367 18.6986 12.2797C18.6884 12.3012 18.6795 12.3189 18.6723 12.333L18.6626 12.3514L18.6588 12.3585L18.6571 12.3615L18.6563 12.3629C18.6563 12.3629 18.6556 12.3642 18.0276 12.0153L18.6556 12.3642C18.4545 12.7263 17.9979 12.8568 17.6358 12.6556C17.2768 12.4562 17.1455 12.0056 17.3393 11.645L17.3443 11.6348C17.3512 11.6204 17.3643 11.5917 17.3818 11.548C17.4167 11.4608 17.4691 11.3135 17.5235 11.1012C17.6322 10.6772 17.75 9.98988 17.75 9C17.75 8.01012 17.6322 7.32284 17.5235 6.89878C17.4691 6.6865 17.4167 6.53919 17.3818 6.45198C17.3643 6.40834 17.3512 6.37962 17.3443 6.36522L17.3393 6.35498C17.1455 5.9944 17.2768 5.54383 17.6358 5.34438Z" fill="white"/>
</svg>
